<?xml version="1.0" encoding="utf-8"?>
<!-- Generator: Adobe Illustrator 25.2.3, SVG Export Plug-In . SVG Version: 6.00 Build 0)  -->
<svg version="1.1" id="Lager_1" xmlns="http://www.w3.org/2000/svg" xmlns:xlink="http://www.w3.org/1999/xlink" x="0px" y="0px"
	 viewBox="0 0 800 1217" style="enable-background:new 0 0 800 1217;" xml:space="preserve">
<style type="text/css">
	.st0{fill:#404040;}
	.st1{fill:none;stroke:#404040;stroke-width:4;stroke-miterlimit:10;}
	.st2{fill:#4ED1A1;stroke:#404040;stroke-width:4;stroke-miterlimit:10;}
	.st3{fill:#FFFFFF;stroke:#404040;stroke-width:4;stroke-miterlimit:10;}
	.st4{fill:#B3E3FF;stroke:#404040;stroke-width:4;stroke-linejoin:round;stroke-miterlimit:10;}
	.st5{fill:#4ED1A1;stroke:#404040;stroke-width:4;stroke-linecap:round;stroke-linejoin:round;stroke-miterlimit:10;}
	.st6{fill:none;stroke:#404040;stroke-width:4;stroke-linecap:round;stroke-linejoin:round;stroke-miterlimit:10;}
	.st7{fill:#999999;}
	.st8{fill:#FFFFFF;stroke:#404040;stroke-width:4;stroke-linecap:round;stroke-linejoin:round;stroke-miterlimit:10;}
	.st9{fill:none;stroke:#CCCCCC;stroke-linecap:round;stroke-linejoin:round;stroke-miterlimit:10;}
	.st10{fill:#B3E3FF;stroke:#404040;stroke-width:4;stroke-linecap:round;stroke-linejoin:round;stroke-miterlimit:10;}
	.st11{fill:#414141;}
</style>
<path class="st0" d="M350.6,795.6h-4.7l-1.1,3h-1.6l4.2-10.6h1.7l4.2,10.6h-1.6L350.6,795.6z M346.4,794.2h3.7l-1.8-4.8L346.4,794.2
	L346.4,794.2z M357.3,792.6v5.9h-1.5v-5.9h-1.3v-1.3h1.3v-1.2c0-1.6,1.1-2.5,2.4-2.5c0.5,0,0.8,0.1,0.8,0.2v1.3
	c-0.1,0-0.3-0.1-0.6-0.1c-0.5,0-1.1,0.2-1.1,1.2v1.1h1.7v1.3H357.3L357.3,792.6z M363.2,791.3h1.6v1.3h-1.6v3.8c0,0.7,0.3,1,1,1
	c0.2,0,0.4,0,0.6-0.1v1.2c-0.1,0-0.5,0.1-1,0.1c-1.2,0-2-0.8-2-2.1v-4h-1.4v-1.3h0.4c0.8,0,1.1-0.5,1.1-1.1v-1.2h1.3V791.3
	L363.2,791.3z M373.6,796.5c-0.4,1.3-1.6,2.3-3.2,2.3c-1.9,0-3.6-1.4-3.6-3.9c0-2.3,1.6-3.8,3.5-3.8c2.2,0,3.5,1.5,3.5,3.8v0.4h-5.4
	c0,1.3,1,2.2,2.2,2.2s1.8-0.6,2-1.5L373.6,796.5z M372.2,794.2c0-1-0.7-1.8-2-1.8c-1.2,0-1.9,0.9-2,1.8H372.2z M380.2,792.8h-0.6
	c-1.2,0-2,0.6-2,2.2v3.6h-1.4v-7.2h1.4v1.3c0.5-1.1,1.4-1.4,2.2-1.4h0.5v1.5L380.2,792.8z M390.2,794.2h-1.6v4.3h-1.5v-10.6h4
	c2,0,3.3,1.4,3.3,3.2c0,1.5-1,2.7-2.6,3l2.5,4.5h-1.7L390.2,794.2L390.2,794.2z M390.8,792.9c1.2,0,2-0.7,2-1.8s-0.8-1.8-2-1.8h-2.2
	v3.6H390.8z M403,796.5c-0.4,1.3-1.6,2.3-3.2,2.3c-1.9,0-3.6-1.4-3.6-3.9c0-2.3,1.6-3.8,3.4-3.8c2.2,0,3.5,1.5,3.5,3.8v0.4h-5.4
	c0,1.3,1,2.2,2.2,2.2s1.8-0.6,2-1.5L403,796.5z M401.5,794.2c0-1-0.7-1.8-2-1.8c-1.2,0-1.9,0.9-2,1.8H401.5z M408.7,798.5h-1.4
	l-2.9-7.2h1.6l2.1,5.6l2.1-5.6h1.5L408.7,798.5L408.7,798.5z M419.7,796.5c-0.4,1.3-1.6,2.3-3.2,2.3c-1.9,0-3.6-1.4-3.6-3.9
	c0-2.3,1.6-3.8,3.4-3.8c2.2,0,3.5,1.5,3.5,3.8v0.4h-5.4c0,1.3,1,2.2,2.2,2.2s1.8-0.6,2-1.5L419.7,796.5z M418.3,794.2
	c0-1-0.7-1.8-2-1.8c-1.2,0-1.9,0.9-2,1.8H418.3z M426.3,792.8h-0.6c-1.2,0-2,0.6-2,2.2v3.6h-1.4v-7.2h1.4v1.3
	c0.5-1.1,1.4-1.4,2.2-1.4h0.5v1.5L426.3,792.8z M430.9,791.3h1.6v1.3h-1.6v3.8c0,0.7,0.3,1,1,1c0.2,0,0.4,0,0.6-0.1v1.2
	c-0.1,0-0.5,0.1-1,0.1c-1.2,0-2-0.8-2-2.1v-4h-1.4v-1.3h0.4c0.8,0,1.1-0.5,1.1-1.1v-1.2h1.3V791.3L430.9,791.3z M435.7,787.6
	c0.6,0,1,0.4,1,1s-0.5,1-1,1c-0.6,0-1-0.5-1-1C434.7,788,435.2,787.6,435.7,787.6z M435,798.5v-7.2h1.4v7.2H435z M441,798.5h-1.4
	v-7.2h1.4v1c0.5-0.9,1.4-1.2,2.2-1.2c1.7,0,2.6,1.2,2.6,2.9v4.6h-1.4v-4.3c0-1-0.4-1.8-1.7-1.8c-1.1,0-1.7,0.9-1.7,2V798.5z
	 M449.6,798.6c0.1,1,0.9,1.8,2,1.8c1.5,0,2.2-0.8,2.2-2.3v-1c-0.3,0.7-1.1,1.2-2.2,1.2c-1.9,0-3.3-1.5-3.3-3.5
	c0-1.9,1.3-3.5,3.3-3.5c1.1,0,1.9,0.4,2.2,1.1v-1h1.4v6.7c0,1.8-0.9,3.6-3.6,3.6c-1.8,0-3.1-1.1-3.3-2.7L449.6,798.6L449.6,798.6z
	 M453.8,794.7c0-1.4-0.8-2.3-2.1-2.3c-1.2,0-2.1,0.9-2.1,2.3s0.8,2.3,2.1,2.3S453.8,796.1,453.8,794.7z"/>
<path class="st1" d="M236.2,1066.2h216.1 M293.9,1025.2c0,22.6-18.4,41-41,41 M293.9,1025.2c0-22.6,18.4-41,41-41h311.2"/>
<circle class="st2" cx="378.3" cy="984.2" r="21"/>
<circle class="st2" cx="474.5" cy="984.2" r="21"/>
<circle class="st2" cx="570.8" cy="984.2" r="21"/>
<circle class="st2" cx="667.1" cy="984.2" r="21"/>
<path class="st1" d="M82.9,1066.2h170"/>
<circle class="st3" cx="103.9" cy="1066.2" r="21"/>
<circle class="st3" cx="199.9" cy="1066.2" r="21"/>
<circle class="st4" cx="377.3" cy="1066.2" r="21"/>
<circle class="st4" cx="473.3" cy="1066.2" r="21"/>
<path class="st5" d="M617.1,843.2h100v50h-100V843.2z"/>
<path class="st0" d="M640.3,874.2v-10.6h6.5v1.4h-5v3.4h4.5v1.4h-4.5v4.5h-1.5V874.2z M654.9,872.2c-0.4,1.3-1.6,2.3-3.2,2.3
	c-1.9,0-3.6-1.4-3.6-3.9c0-2.3,1.6-3.8,3.4-3.8c2.2,0,3.5,1.5,3.5,3.8v0.4h-5.4c0,1.3,1,2.2,2.2,2.2s1.8-0.6,2-1.5L654.9,872.2z
	 M653.5,869.9c0-1-0.7-1.8-2-1.8c-1.2,0-1.9,0.9-2,1.8H653.5z M659.3,870.1l1.9-0.3c0.4-0.1,0.6-0.3,0.6-0.5c0-0.7-0.5-1.3-1.6-1.3
	c-1,0-1.5,0.6-1.6,1.5l-1.4-0.3c0.2-1.4,1.4-2.3,3-2.3c2.2,0,3,1.2,3,2.6v3.6c0,0.6,0.1,1,0.1,1.2h-1.4c0-0.2-0.1-0.5-0.1-1
	c-0.3,0.5-1,1.2-2.3,1.2c-1.5,0-2.4-1-2.4-2.2C657.1,871,658,870.3,659.3,870.1z M661.8,871.1v-0.3l-2.2,0.3
	c-0.6,0.1-1.1,0.4-1.1,1.1c0,0.5,0.4,1,1.2,1C660.8,873.3,661.8,872.7,661.8,871.1z M668,867h1.6v1.3H668v3.8c0,0.7,0.3,1,1,1
	c0.2,0,0.4,0,0.6-0.1v1.2c-0.1,0-0.5,0.1-1,0.1c-1.2,0-2-0.8-2-2.1v-4h-1.4V867h0.4c0.8,0,1.1-0.5,1.1-1.1v-1.2h1.3L668,867L668,867
	z M674.8,874.5c-1.7,0-2.7-1.3-2.7-2.9V867h1.4v4.3c0,1,0.4,1.9,1.6,1.9c1.1,0,1.7-0.8,1.7-1.8V867h1.4v5.9c0,0.6,0,1.1,0.1,1.3H677
	c0-0.2-0.1-0.6-0.1-0.9C676.5,874.1,675.6,874.5,674.8,874.5L674.8,874.5z M685.4,868.4h-0.6c-1.2,0-2,0.6-2,2.2v3.6h-1.4V867h1.4
	v1.3c0.5-1.1,1.4-1.4,2.2-1.4h0.5v1.5L685.4,868.4z M693.9,872.2c-0.4,1.3-1.6,2.3-3.2,2.3c-1.9,0-3.6-1.4-3.6-3.9
	c0-2.3,1.6-3.8,3.4-3.8c2.2,0,3.5,1.5,3.5,3.8v0.4h-5.4c0,1.3,1,2.2,2.2,2.2s1.8-0.6,2-1.5L693.9,872.2z M692.5,869.9
	c0-1-0.7-1.8-2-1.8c-1.2,0-1.9,0.9-2,1.8H692.5z"/>
<path class="st6" d="M667.1,939v-23.5 M678,930.3l-10.9,10.9l-10.9-10.9"/>
<path class="st6" d="M473.3,1111.6v23.5 M462.4,1120.3l10.9-10.8l10.8,10.8 M624.6,940.9c-9.3-36.1-41.8-62.9-80.7-63.4"/>
<path class="st0" d="M362.3,867.4h-1.6v4.3h-1.5v-10.6h4c2,0,3.3,1.4,3.3,3.2c0,1.5-1,2.7-2.6,3l2.5,4.5h-1.7L362.3,867.4
	L362.3,867.4z M363,866.1c1.2,0,2-0.7,2-1.8s-0.8-1.8-2-1.8h-2.2v3.6H363z M375.1,869.7c-0.4,1.3-1.6,2.3-3.2,2.3
	c-1.9,0-3.6-1.4-3.6-3.9c0-2.3,1.6-3.8,3.4-3.8c2.2,0,3.5,1.5,3.5,3.8v0.4h-5.4c0,1.3,1,2.2,2.2,2.2s1.8-0.6,2-1.5L375.1,869.7z
	 M373.7,867.4c0-1-0.7-1.8-2-1.8c-1.2,0-1.9,0.9-2,1.8H373.7z M377.7,871.8v-7.2h1.3v1c0.5-0.8,1.4-1.2,2.2-1.2
	c0.9,0,1.8,0.4,2.2,1.4c0.6-1,1.5-1.4,2.4-1.4c1.3,0,2.5,0.9,2.5,2.7v4.7h-1.4v-4.5c0-0.9-0.5-1.6-1.5-1.6s-1.7,0.8-1.7,1.8v4.4
	h-1.4v-4.5c0-0.9-0.4-1.6-1.5-1.6c-1,0-1.7,0.8-1.7,1.8v4.3h-1.4V871.8z M398.1,868.2c0,2.2-1.5,3.8-3.7,3.8s-3.7-1.6-3.7-3.8
	s1.5-3.8,3.7-3.8S398.1,866,398.1,868.2z M396.7,868.2c0-1.7-1.1-2.6-2.2-2.6s-2.2,0.9-2.2,2.6c0,1.7,1,2.6,2.2,2.6
	S396.7,869.8,396.7,868.2z M403.7,871.8h-1.4l-2.9-7.2h1.6l2.1,5.6l2.1-5.6h1.5L403.7,871.8L403.7,871.8z M414.8,869.7
	c-0.4,1.3-1.6,2.3-3.2,2.3c-1.9,0-3.6-1.4-3.6-3.9c0-2.3,1.6-3.8,3.4-3.8c2.2,0,3.5,1.5,3.5,3.8v0.4h-5.4c0,1.3,1,2.2,2.2,2.2
	s1.8-0.6,2-1.5L414.8,869.7z M413.4,867.4c0-1-0.7-1.8-2-1.8c-1.2,0-1.9,0.9-2,1.8H413.4z M418,869.5c0.1,0.8,0.7,1.3,1.7,1.3
	c0.8,0,1.2-0.4,1.2-1c0-0.4-0.3-0.8-0.9-0.9l-1.2-0.3c-1.1-0.2-1.8-1-1.8-2c0-1.2,1.2-2.3,2.6-2.3c2,0,2.6,1.3,2.7,1.9l-1.2,0.5
	c-0.1-0.4-0.4-1.2-1.5-1.2c-0.7,0-1.2,0.5-1.2,1c0,0.4,0.3,0.8,0.8,0.9l1.2,0.3c1.3,0.3,2,1.1,2,2.1s-0.9,2.2-2.6,2.2
	c-2,0-2.8-1.3-2.9-2.1L418,869.5L418,869.5z M430.2,868.2c0,1.6,1,2.5,2.2,2.5c1.3,0,1.8-0.9,2-1.5l1.2,0.5c-0.3,1-1.4,2.2-3.3,2.2
	c-2.1,0-3.6-1.6-3.6-3.8s1.6-3.8,3.6-3.8c1.9,0,2.9,1.2,3.2,2.3l-1.3,0.5c-0.2-0.7-0.7-1.5-1.9-1.5
	C431.3,865.6,430.2,866.5,430.2,868.2L430.2,868.2z M439.5,871.8h-1.4v-10.9h1.4v4.5c0.5-0.8,1.4-1.1,2.2-1.1c1.7,0,2.6,1.2,2.6,2.9
	v4.6h-1.4v-4.3c0-1-0.4-1.8-1.7-1.8c-1.1,0-1.6,0.8-1.7,1.9V871.8L439.5,871.8z M449,867.7l1.9-0.3c0.4-0.1,0.6-0.3,0.6-0.5
	c0-0.7-0.5-1.3-1.6-1.3c-1,0-1.5,0.6-1.6,1.5l-1.4-0.3c0.2-1.4,1.4-2.3,3-2.3c2.2,0,3,1.2,3,2.6v3.6c0,0.6,0.1,1,0.1,1.2h-1.4
	c0-0.2-0.1-0.5-0.1-1c-0.3,0.5-1,1.2-2.3,1.2c-1.5,0-2.4-1-2.4-2.2C446.8,868.6,447.8,867.8,449,867.7L449,867.7z M451.5,868.7v-0.3
	l-2.2,0.3c-0.6,0.1-1,0.4-1,1.1c0,0.5,0.4,1,1.2,1C450.6,870.8,451.5,870.3,451.5,868.7z M457.3,871.8h-1.4v-7.2h1.4v1
	c0.5-0.9,1.4-1.2,2.2-1.2c1.7,0,2.6,1.2,2.6,2.9v4.6h-1.4v-4.3c0-1-0.4-1.8-1.7-1.8c-1.1,0-1.7,0.9-1.7,2V871.8z M465.9,871.9
	c0.1,1,0.9,1.8,2,1.8c1.5,0,2.2-0.8,2.2-2.3v-1c-0.3,0.7-1.1,1.2-2.2,1.2c-1.9,0-3.3-1.5-3.3-3.5c0-1.9,1.3-3.5,3.3-3.5
	c1.1,0,1.9,0.4,2.2,1.1v-1h1.4v6.7c0,1.8-0.9,3.6-3.6,3.6c-1.8,0-3.1-1.1-3.3-2.7L465.9,871.9L465.9,871.9z M470.1,867.9
	c0-1.4-0.8-2.3-2.1-2.3c-1.2,0-2.1,0.9-2.1,2.3s0.8,2.3,2.1,2.3C469.3,870.3,470.1,869.3,470.1,867.9z M480.8,869.7
	c-0.4,1.3-1.6,2.3-3.2,2.3c-1.9,0-3.6-1.4-3.6-3.9c0-2.3,1.6-3.8,3.4-3.8c2.2,0,3.5,1.5,3.5,3.8v0.4h-5.4c0,1.3,1,2.2,2.2,2.2
	s1.8-0.6,2-1.5L480.8,869.7z M479.3,867.4c0-1-0.7-1.8-2-1.8c-1.2,0-1.9,0.9-2,1.8H479.3z M484,869.5c0.1,0.8,0.7,1.3,1.7,1.3
	c0.8,0,1.2-0.4,1.2-1c0-0.4-0.3-0.8-0.9-0.9l-1.2-0.3c-1.1-0.2-1.8-1-1.8-2c0-1.2,1.2-2.3,2.6-2.3c2,0,2.6,1.3,2.7,1.9l-1.2,0.5
	c-0.1-0.4-0.4-1.2-1.5-1.2c-0.7,0-1.2,0.5-1.2,1c0,0.4,0.3,0.8,0.8,0.9l1.2,0.3c1.3,0.3,2,1.1,2,2.1s-0.9,2.2-2.6,2.2
	c-2,0-2.8-1.3-2.9-2.1L484,869.5L484,869.5z M497.3,865.8v5.9h-1.5v-5.9h-1.3v-1.3h1.3v-1.2c0-1.6,1.1-2.5,2.4-2.5
	c0.5,0,0.8,0.1,0.8,0.2v1.3c-0.1,0-0.3-0.1-0.6-0.1c-0.5,0-1.1,0.2-1.1,1.2v1.1h1.7v1.3H497.3L497.3,865.8z M505.3,866h-0.6
	c-1.2,0-2,0.6-2,2.2v3.6h-1.4v-7.2h1.4v1.3c0.5-1.1,1.4-1.4,2.2-1.4h0.5v1.5L505.3,866z M514.2,868.2c0,2.2-1.5,3.8-3.7,3.8
	s-3.7-1.6-3.7-3.8s1.5-3.8,3.7-3.8C512.7,864.3,514.2,866,514.2,868.2z M512.8,868.2c0-1.7-1.1-2.6-2.3-2.6s-2.2,0.9-2.2,2.6
	c0,1.7,1.1,2.6,2.2,2.6S512.8,869.8,512.8,868.2z M516.8,871.8v-7.2h1.3v1c0.5-0.8,1.4-1.2,2.2-1.2c0.9,0,1.8,0.4,2.2,1.4
	c0.6-1,1.5-1.4,2.4-1.4c1.3,0,2.5,0.9,2.5,2.7v4.7H526v-4.5c0-0.9-0.5-1.6-1.5-1.6s-1.7,0.8-1.7,1.8v4.4h-1.4v-4.5
	c0-0.9-0.4-1.6-1.5-1.6c-1,0-1.7,0.8-1.7,1.8v4.3h-1.4L516.8,871.8z M370.7,882.6h1.6v1.3h-1.6v3.8c0,0.7,0.3,1,1,1
	c0.2,0,0.4,0,0.6-0.1v1.2c-0.1,0-0.5,0.1-1,0.1c-1.2,0-2-0.8-2-2.1v-4h-1.4v-1.3h0.4c0.8,0,1.1-0.5,1.1-1.1v-1.2h1.3V882.6
	L370.7,882.6z M376.3,889.8h-1.4v-10.9h1.4v4.5c0.5-0.8,1.4-1.1,2.2-1.1c1.7,0,2.6,1.2,2.6,2.9v4.6h-1.4v-4.3c0-1-0.4-1.8-1.7-1.8
	c-1.1,0-1.6,0.8-1.7,1.9V889.8L376.3,889.8z M390.4,887.7c-0.4,1.3-1.6,2.3-3.2,2.3c-1.9,0-3.6-1.4-3.6-3.9c0-2.3,1.6-3.8,3.4-3.8
	c2.2,0,3.5,1.5,3.5,3.8v0.4H385c0,1.3,1,2.2,2.2,2.2s1.8-0.6,2-1.5L390.4,887.7z M389,885.4c0-1-0.7-1.8-2-1.8c-1.2,0-1.9,0.9-2,1.8
	H389z M401.5,884h-0.6c-1.2,0-2,0.6-2,2.2v3.6h-1.4v-7.2h1.4v1.3c0.5-1.1,1.4-1.4,2.2-1.4h0.5v1.5L401.5,884z M409.9,887.7
	c-0.4,1.3-1.6,2.3-3.2,2.3c-1.9,0-3.6-1.4-3.6-3.9c0-2.3,1.6-3.8,3.4-3.8c2.2,0,3.5,1.5,3.5,3.8v0.4h-5.4c0,1.3,1,2.2,2.2,2.2
	s1.8-0.6,2-1.5L409.9,887.7z M408.5,885.4c0-1-0.7-1.8-2-1.8c-1.2,0-1.9,0.9-2,1.8H408.5z M415.7,889.8h-1.4l-2.9-7.2h1.6l2.1,5.6
	l2.1-5.6h1.5L415.7,889.8L415.7,889.8z M426.7,887.7c-0.4,1.3-1.6,2.3-3.2,2.3c-1.9,0-3.6-1.4-3.6-3.9c0-2.3,1.6-3.8,3.4-3.8
	c2.2,0,3.5,1.5,3.5,3.8v0.4h-5.4c0,1.3,1,2.2,2.2,2.2s1.8-0.6,2-1.5L426.7,887.7z M425.3,885.4c0-1-0.7-1.8-2-1.8
	c-1.2,0-1.9,0.9-2,1.8H425.3z M433.3,884h-0.6c-1.2,0-2,0.6-2,2.2v3.6h-1.4v-7.2h1.4v1.3c0.5-1.1,1.4-1.4,2.2-1.4h0.5v1.5L433.3,884
	z M437.8,882.6h1.6v1.3h-1.6v3.8c0,0.7,0.3,1,1,1c0.2,0,0.4,0,0.6-0.1v1.2c-0.1,0-0.5,0.1-1,0.1c-1.2,0-2-0.8-2-2.1v-4H435v-1.3h0.4
	c0.8,0,1.1-0.5,1.1-1.1v-1.2h1.3V882.6L437.8,882.6z M448.2,887.7c-0.4,1.3-1.6,2.3-3.2,2.3c-1.9,0-3.6-1.4-3.6-3.9
	c0-2.3,1.6-3.8,3.4-3.8c2.2,0,3.5,1.5,3.5,3.8v0.4h-5.4c0,1.3,1,2.2,2.2,2.2s1.8-0.6,2-1.5L448.2,887.7z M446.8,885.4
	c0-1-0.7-1.8-2-1.8c-1.2,0-1.9,0.9-2,1.8H446.8z M455.9,888.7c-0.3,0.7-1.1,1.3-2.2,1.3c-2.1,0-3.4-1.7-3.4-3.8c0-2,1.4-3.8,3.4-3.8
	c1.3,0,2,0.6,2.2,1.2v-4.7h1.4v9.5c0,0.7,0.1,1.2,0.1,1.3H456C456,889.5,455.9,889.2,455.9,888.7z M453.8,888.7
	c1.3,0,2.1-1.1,2.1-2.6s-0.8-2.5-2.1-2.5s-2.1,1-2.1,2.5S452.4,888.7,453.8,888.7z M465.7,886.2c0,1.6,1,2.5,2.2,2.5
	c1.3,0,1.8-0.9,2-1.5l1.2,0.5c-0.3,1-1.4,2.2-3.3,2.2c-2.1,0-3.6-1.6-3.6-3.8s1.6-3.8,3.6-3.8c1.9,0,2.9,1.2,3.2,2.3l-1.3,0.5
	c-0.2-0.7-0.7-1.5-1.9-1.5C466.8,883.6,465.7,884.5,465.7,886.2L465.7,886.2z M480.3,886.2c0,2.2-1.5,3.8-3.7,3.8s-3.7-1.6-3.7-3.8
	s1.5-3.8,3.7-3.8S480.3,884,480.3,886.2z M478.9,886.2c0-1.7-1.1-2.6-2.2-2.6s-2.2,0.9-2.2,2.6c0,1.7,1,2.6,2.2,2.6
	S478.9,887.8,478.9,886.2z M482.8,889.8v-7.2h1.3v1c0.4-0.8,1.4-1.2,2.2-1.2c0.9,0,1.8,0.4,2.2,1.4c0.6-1,1.5-1.4,2.4-1.4
	c1.3,0,2.5,0.9,2.5,2.7v4.7H492v-4.5c0-0.9-0.5-1.6-1.5-1.6s-1.7,0.8-1.7,1.8v4.4h-1.4v-4.5c0-0.9-0.4-1.6-1.5-1.6
	c-1,0-1.7,0.8-1.7,1.8v4.3h-1.4V889.8z M496.5,889.8v-7.2h1.3v1c0.4-0.8,1.4-1.2,2.2-1.2c0.9,0,1.8,0.4,2.2,1.4
	c0.6-1,1.5-1.4,2.4-1.4c1.3,0,2.5,0.9,2.5,2.7v4.7h-1.4v-4.5c0-0.9-0.5-1.6-1.5-1.6s-1.7,0.8-1.7,1.8v4.4h-1.4v-4.5
	c0-0.9-0.4-1.6-1.5-1.6c-1,0-1.7,0.8-1.7,1.8v4.3h-1.4V889.8z M510.7,878.8c0.6,0,1,0.4,1,1s-0.4,1-1,1s-1-0.5-1-1
	S510.2,878.8,510.7,878.8z M510.1,889.8v-7.2h1.4v7.2H510.1z M516.5,882.6h1.6v1.3h-1.6v3.8c0,0.7,0.3,1,1,1c0.2,0,0.4,0,0.6-0.1
	v1.2c-0.1,0-0.5,0.1-1,0.1c-1.2,0-2-0.8-2-2.1v-4h-1.4v-1.3h0.4c0.8,0,1.1-0.5,1.1-1.1v-1.2h1.3L516.5,882.6L516.5,882.6z"/>
<path class="st6" d="M631.8,927.5l-6.6,13.8l-13.9-6.6"/>
<path class="st7" d="M282.8,10.7h-1.6V15h-1.5V4.4h4c2,0,3.3,1.4,3.3,3.2c0,1.5-1,2.7-2.6,3l2.5,4.5h-1.7L282.8,10.7L282.8,10.7z
	 M283.5,9.4c1.2,0,2-0.7,2-1.8s-0.8-1.8-2-1.8h-2.2v3.6H283.5z M295.6,13c-0.4,1.3-1.6,2.3-3.2,2.3c-1.9,0-3.6-1.4-3.6-3.9
	c0-2.3,1.6-3.8,3.4-3.8c2.2,0,3.5,1.5,3.5,3.8v0.4h-5.4c0,1.3,1,2.2,2.2,2.2s1.8-0.6,2-1.5C294.5,12.5,295.6,13,295.6,13z
	 M294.2,10.7c0-1-0.7-1.8-2-1.8c-1.2,0-1.9,0.9-2,1.8H294.2z M301.4,15.1H300l-3-7.2h1.6l2.1,5.6l2.1-5.6h1.5L301.4,15.1L301.4,15.1
	z M312.4,13c-0.4,1.3-1.6,2.3-3.2,2.3c-1.9,0-3.6-1.4-3.6-3.9c0-2.3,1.6-3.8,3.4-3.8c2.2,0,3.5,1.5,3.5,3.8v0.4H307
	c0,1.3,1,2.2,2.2,2.2s1.8-0.6,2-1.5C311.2,12.5,312.4,13,312.4,13z M311,10.7c0-1-0.7-1.8-2-1.8c-1.2,0-1.9,0.9-2,1.8H311z M319,9.3
	h-0.6c-1.2,0-2,0.6-2,2.2v3.6H315V7.9h1.4v1.3c0.5-1.1,1.4-1.4,2.2-1.4h0.5v1.5L319,9.3z M323.5,7.9h1.6v1.3h-1.6V13
	c0,0.7,0.3,1,1,1c0.2,0,0.4,0,0.6-0.1V15c-0.1,0-0.5,0.1-1,0.1c-1.2,0-2-0.8-2-2.1V9h-1.4V7.9h0.4c0.8,0,1.1-0.5,1.1-1.1V5.6h1.3
	C323.5,5.6,323.5,7.9,323.5,7.9z M328.4,4.1c0.6,0,1,0.4,1,1s-0.4,1-1,1s-1-0.5-1-1S327.8,4.1,328.4,4.1z M327.7,15.1V7.9h1.4v7.2
	H327.7z M333.7,15.1h-1.4V7.9h1.4v1c0.5-0.9,1.4-1.2,2.2-1.2c1.7,0,2.6,1.2,2.6,2.9v4.6H337v-4.3c0-1-0.4-1.8-1.7-1.8
	c-1.1,0-1.7,0.9-1.7,2v4H333.7z M342.3,15.2c0.1,1,0.9,1.8,2,1.8c1.5,0,2.2-0.8,2.2-2.3v-1c-0.3,0.7-1.1,1.2-2.2,1.2
	c-1.9,0-3.3-1.5-3.3-3.5c0-1.9,1.3-3.5,3.3-3.5c1.1,0,1.9,0.4,2.2,1.1V8h1.4v6.7c0,1.8-0.9,3.6-3.6,3.6c-1.8,0-3.1-1.1-3.3-2.7
	C341,15.6,342.3,15.2,342.3,15.2z M346.5,11.2c0-1.4-0.8-2.3-2.1-2.3c-1.2,0-2.1,0.9-2.1,2.3s0.8,2.3,2.1,2.3S346.5,12.6,346.5,11.2
	z M357.2,7.9h1.6v1.3h-1.6V13c0,0.7,0.3,1,1,1c0.2,0,0.4,0,0.6-0.1V15c-0.1,0-0.5,0.1-1,0.1c-1.2,0-2-0.8-2-2.1V9h-1.4V7.9h0.4
	c0.8,0,1.1-0.5,1.1-1.1V5.6h1.3C357.2,5.6,357.2,7.9,357.2,7.9z M362.8,15.1h-1.4V4.2h1.4v4.5c0.5-0.8,1.4-1.1,2.2-1.1
	c1.7,0,2.6,1.2,2.6,2.9v4.6h-1.4v-4.3c0-1-0.4-1.8-1.7-1.8c-1.1,0-1.6,0.8-1.7,1.9C362.8,10.9,362.8,15.1,362.8,15.1z M376.9,13
	c-0.4,1.3-1.6,2.3-3.2,2.3c-1.9,0-3.6-1.4-3.6-3.9c0-2.3,1.6-3.8,3.4-3.8c2.2,0,3.5,1.5,3.5,3.8v0.4h-5.4c0,1.3,1,2.2,2.2,2.2
	s1.8-0.6,2-1.5C375.8,12.5,376.9,13,376.9,13z M375.5,10.7c0-1-0.7-1.8-2-1.8c-1.2,0-1.9,0.9-2,1.8H375.5z M383.4,8.7V8.3
	c0-1.7,1.2-3.1,3.4-3.1c2.1,0,3.3,1.4,3.3,3c0,1.3-0.7,2.3-1.8,3l-1.9,1.2c-0.6,0.4-1.1,0.8-1.2,1.4h5v1.4h-6.8
	c0-1.6,0.7-2.8,2.3-3.9l1.6-1.1c0.9-0.6,1.3-1.3,1.3-2c0-0.9-0.6-1.7-1.8-1.7c-1.3,0-1.9,0.9-1.9,2v0.4
	C384.9,8.9,383.4,8.7,383.4,8.7z M394.1,15.1h-1.4V7.9h1.4v1c0.5-0.9,1.4-1.2,2.2-1.2c1.7,0,2.6,1.2,2.6,2.9v4.6h-1.4v-4.3
	c0-1-0.4-1.8-1.7-1.8c-1.1,0-1.7,0.9-1.7,2V15.1z M406.9,14c-0.3,0.7-1.1,1.3-2.2,1.3c-2.1,0-3.4-1.7-3.4-3.8c0-2,1.4-3.8,3.4-3.8
	c1.3,0,2,0.6,2.2,1.2V4.2h1.4v9.5c0,0.7,0.1,1.2,0.1,1.3H407C407,14.8,406.9,14.5,406.9,14z M404.8,14c1.3,0,2.1-1.1,2.1-2.6
	s-0.8-2.5-2.1-2.5s-2.1,1-2.1,2.5S403.5,14,404.8,14z M417.8,7.9h1.6v1.3h-1.6V13c0,0.7,0.3,1,1,1c0.2,0,0.4,0,0.6-0.1V15
	c-0.1,0-0.5,0.1-1,0.1c-1.2,0-2-0.8-2-2.1V9H415V7.9h0.4c0.8,0,1.1-0.5,1.1-1.1V5.6h1.3C417.8,5.6,417.8,7.9,417.8,7.9z M428.7,11.5
	c0,2.2-1.5,3.8-3.7,3.8s-3.7-1.6-3.7-3.8s1.5-3.8,3.7-3.8S428.7,9.3,428.7,11.5z M427.3,11.5c0-1.7-1.1-2.6-2.2-2.6
	s-2.2,0.9-2.2,2.6s1,2.6,2.2,2.6S427.3,13.1,427.3,11.5z M435.8,15.1V4.2h1.4v10.9H435.8z M442.1,11l1.9-0.3
	c0.4-0.1,0.6-0.3,0.6-0.5c0-0.7-0.5-1.3-1.6-1.3c-1,0-1.5,0.6-1.6,1.5L440,10c0.2-1.4,1.4-2.3,3-2.3c2.2,0,3,1.2,3,2.6v3.6
	c0,0.6,0.1,1,0.1,1.2h-1.4c0-0.2-0.1-0.5-0.1-1c-0.3,0.5-1,1.2-2.3,1.2c-1.5,0-2.4-1-2.4-2.2S440.8,11.1,442.1,11L442.1,11z
	 M444.6,12v-0.3l-2.2,0.3c-0.6,0.1-1.1,0.4-1.1,1.1c0,0.5,0.4,1,1.2,1C443.6,14.1,444.6,13.6,444.6,12z M449.5,12.8
	c0.1,0.8,0.7,1.3,1.7,1.3c0.8,0,1.2-0.4,1.2-1c0-0.4-0.3-0.8-0.9-0.9l-1.2-0.3c-1.1-0.2-1.8-1-1.8-2c0-1.2,1.2-2.3,2.6-2.3
	c2,0,2.6,1.3,2.7,1.9l-1.2,0.5c-0.1-0.4-0.4-1.2-1.5-1.2c-0.7,0-1.2,0.5-1.2,1c0,0.4,0.3,0.8,0.8,0.9l1.2,0.3c1.3,0.3,2,1.1,2,2.1
	s-0.9,2.2-2.6,2.2c-2,0-2.8-1.3-2.9-2.1L449.5,12.8L449.5,12.8z M458.3,7.9h1.6v1.3h-1.6V13c0,0.7,0.3,1,1,1c0.2,0,0.4,0,0.6-0.1V15
	c-0.1,0-0.5,0.1-1,0.1c-1.2,0-2-0.8-2-2.1V9h-1.4V7.9h0.4c0.8,0,1.1-0.5,1.1-1.1V5.6h1.3C458.3,5.6,458.3,7.9,458.3,7.9z
	 M467.9,11.5c0,1.6,1,2.5,2.2,2.5c1.3,0,1.8-0.9,2-1.5l1.2,0.5c-0.3,1-1.4,2.2-3.3,2.2c-2.1,0-3.6-1.6-3.6-3.8s1.6-3.8,3.6-3.8
	c1.9,0,2.9,1.2,3.2,2.3l-1.3,0.5c-0.2-0.7-0.7-1.5-1.9-1.5C468.9,8.9,467.9,9.8,467.9,11.5L467.9,11.5z M482.4,11.5
	c0,2.2-1.5,3.8-3.7,3.8s-3.7-1.6-3.7-3.8s1.5-3.8,3.7-3.8S482.4,9.3,482.4,11.5z M481,11.5c0-1.7-1.1-2.6-2.2-2.6s-2.2,0.9-2.2,2.6
	s1.1,2.6,2.2,2.6S481,13.1,481,11.5z M485,15.1V7.9h1.3v1c0.5-0.8,1.4-1.2,2.2-1.2c0.9,0,1.8,0.4,2.2,1.4c0.6-1,1.5-1.4,2.4-1.4
	c1.3,0,2.5,0.9,2.5,2.7v4.7h-1.4v-4.5c0-0.9-0.5-1.6-1.5-1.6s-1.7,0.8-1.7,1.8v4.4h-1.4v-4.5c0-0.9-0.4-1.6-1.5-1.6
	c-1,0-1.7,0.8-1.7,1.8v4.3H485V15.1z M498.6,15.1V7.9h1.3v1c0.5-0.8,1.4-1.2,2.2-1.2c0.9,0,1.8,0.4,2.2,1.4c0.6-1,1.5-1.4,2.4-1.4
	c1.3,0,2.5,0.9,2.5,2.7v4.7h-1.4v-4.5c0-0.9-0.5-1.6-1.5-1.6s-1.7,0.8-1.7,1.8v4.4h-1.4v-4.5c0-0.9-0.4-1.6-1.5-1.6
	c-1,0-1.7,0.8-1.7,1.8v4.3h-1.4V15.1z M512.9,4.1c0.6,0,1,0.4,1,1s-0.4,1-1,1s-1-0.5-1-1S512.3,4.1,512.9,4.1z M512.2,15.1V7.9h1.4
	v7.2H512.2z M518.6,7.9h1.6v1.3h-1.6V13c0,0.7,0.3,1,1,1c0.2,0,0.4,0,0.6-0.1V15c-0.1,0-0.5,0.1-1,0.1c-1.2,0-2-0.8-2-2.1V9h-1.4
	V7.9h0.4c0.8,0,1.1-0.5,1.1-1.1V5.6h1.3L518.6,7.9L518.6,7.9z"/>
<path class="st1" d="M285.8,366.1h216.1 M343.5,325.1c0,22.6-18.4,41-41,41 M343.5,325.1c0-22.6,18.4-41,41-41h214.9"/>
<circle class="st2" cx="427.9" cy="284.1" r="21"/>
<circle class="st2" cx="524.2" cy="284.1" r="21"/>
<circle class="st2" cx="620.5" cy="284.1" r="21"/>
<path class="st1" d="M132.5,366.1h170"/>
<circle class="st3" cx="153.5" cy="366.1" r="21"/>
<circle class="st3" cx="249.5" cy="366.1" r="21"/>
<circle class="st4" cx="426.9" cy="366.1" r="21"/>
<circle class="st4" cx="522.9" cy="366.1" r="21"/>
<path class="st5" d="M573.5,143.1h94v50h-94V143.1z"/>
<path class="st0" d="M606.2,174.1v-4.7h-5.4v4.7h-1.5v-10.6h1.5v4.5h5.4v-4.5h1.5v10.6H606.2z M617.7,170.5c0,2.2-1.5,3.8-3.7,3.8
	s-3.7-1.6-3.7-3.8s1.5-3.8,3.7-3.8S617.7,168.3,617.7,170.5z M616.3,170.5c0-1.7-1.1-2.6-2.2-2.6s-2.2,0.9-2.2,2.6
	c0,1.7,1.1,2.6,2.2,2.6S616.3,172.1,616.3,170.5z M622.1,166.9h1.6v1.3h-1.6v3.8c0,0.7,0.3,1,1,1c0.2,0,0.4,0,0.6-0.1v1.2
	c-0.1,0-0.5,0.1-1,0.1c-1.2,0-2-0.8-2-2.1v-4h-1.4v-1.3h0.4c0.8,0,1.1-0.5,1.1-1.1v-1.2h1.3L622.1,166.9L622.1,166.9z M629.9,163.3
	v1.3c-0.1,0-0.3-0.1-0.6-0.1c-0.5,0-1.1,0.2-1.1,1.2v1.2h4.8v7.2h-1.4v-5.9h-3.4v5.9h-1.5v-5.9h-1.3v-1.3h1.3v-1.2
	c0-1.6,1.1-2.5,2.4-2.5C629.6,163.2,629.9,163.3,629.9,163.3z M632.2,163.1c0.6,0,1,0.5,1,1c0,0.6-0.4,1-1,1s-1-0.4-1-1
	S631.7,163.1,632.2,163.1z M637.7,170.4l-2.6-3.5h1.7l1.8,2.5l1.7-2.5h1.7l-2.6,3.5c0.4,0.6,2.2,3.1,2.7,3.7h-1.7l-1.9-2.7l-1.8,2.7
	H635L637.7,170.4L637.7,170.4z"/>
<path class="st6" d="M620.5,238.9v-23.5 M631.3,230.2l-10.8,10.9l-10.9-10.9"/>
<path class="st6" d="M524.2,409.3v23.5 M513.3,418l10.9-10.8L535,418"/>
<path class="st8" d="M421.4,284.1h13 M423.3,279.5l9.2,9.1 M432.5,279.5l-9.2,9.1 M427.9,277.6v13"/>
<path class="st0" d="M331.4,574.6c0-3.6,2.6-5.5,5.3-5.5c2.4,0,4.1,1.3,4.7,3.4L340,573c-0.4-1.6-1.6-2.5-3.3-2.5
	c-1.9,0-3.8,1.4-3.8,4.2s1.8,4.2,3.8,4.2c1.8,0,3-1.1,3.4-2.5l1.3,0.5c-0.6,2-2.2,3.4-4.7,3.4C334,580.1,331.4,578.1,331.4,574.6
	L331.4,574.6z M350.4,576.3c0,2.2-1.5,3.8-3.7,3.8s-3.7-1.6-3.7-3.8s1.5-3.8,3.7-3.8S350.4,574.1,350.4,576.3z M349,576.3
	c0-1.7-1.1-2.6-2.2-2.6s-2.2,0.9-2.2,2.6c0,1.7,1,2.6,2.2,2.6S349,578,349,576.3z M353,579.9v-7.2h1.3v1c0.4-0.8,1.4-1.2,2.2-1.2
	c0.9,0,1.8,0.4,2.2,1.4c0.6-1,1.5-1.4,2.4-1.4c1.3,0,2.5,0.9,2.5,2.7v4.7h-1.4v-4.5c0-0.9-0.5-1.6-1.5-1.6s-1.7,0.8-1.7,1.8v4.4
	h-1.4v-4.5c0-0.9-0.4-1.6-1.5-1.6c-1,0-1.7,0.8-1.7,1.8v4.3H353V579.9z M366.6,579.9v-7.2h1.3v1c0.4-0.8,1.4-1.2,2.2-1.2
	c0.9,0,1.8,0.4,2.2,1.4c0.6-1,1.5-1.4,2.4-1.4c1.3,0,2.5,0.9,2.5,2.7v4.7h-1.4v-4.5c0-0.9-0.5-1.6-1.5-1.6s-1.7,0.8-1.7,1.8v4.4
	h-1.4v-4.5c0-0.9-0.4-1.6-1.5-1.6c-1,0-1.7,0.8-1.7,1.8v4.3h-1.4V579.9z M380.9,568.9c0.6,0,1,0.4,1,1s-0.4,1-1,1s-1-0.5-1-1
	S380.3,568.9,380.9,568.9z M380.2,579.9v-7.2h1.4v7.2H380.2z M386.6,572.7h1.6v1.3h-1.6v3.8c0,0.7,0.3,1,1,1c0.2,0,0.4,0,0.6-0.1
	v1.2c-0.1,0-0.5,0.1-1,0.1c-1.2,0-2-0.8-2-2.1v-4h-1.4v-1.3h0.4c0.8,0,1.1-0.5,1.1-1.1v-1.2h1.3V572.7L386.6,572.7z M397.2,572.7
	h1.6v1.3h-1.6v3.8c0,0.7,0.3,1,1,1c0.2,0,0.4,0,0.6-0.1v1.2c-0.1,0-0.5,0.1-1,0.1c-1.2,0-2-0.8-2-2.1v-4h-1.4v-1.3h0.4
	c0.8,0,1.1-0.5,1.1-1.1v-1.2h1.3V572.7L397.2,572.7z M408.1,576.3c0,2.2-1.5,3.8-3.7,3.8s-3.7-1.6-3.7-3.8s1.5-3.8,3.7-3.8
	S408.1,574.1,408.1,576.3z M406.6,576.3c0-1.7-1.1-2.6-2.2-2.6s-2.2,0.9-2.2,2.6c0,1.7,1,2.6,2.2,2.6S406.6,578,406.6,576.3z
	 M415.1,579.9V569h1.4v4.7c0.3-0.6,1.2-1.2,2.4-1.2c2.2,0,3.3,1.7,3.3,3.8s-1.2,3.8-3.4,3.8c-1.1,0-1.9-0.5-2.3-1.2v1L415.1,579.9
	L415.1,579.9z M418.7,573.7c-1.2,0-2.1,1-2.1,2.5c0,1.6,0.9,2.6,2.1,2.6c1.3,0,2.1-1,2.1-2.6C420.8,574.7,420,573.7,418.7,573.7z
	 M431.1,577.9c-0.4,1.3-1.6,2.3-3.2,2.3c-1.9,0-3.6-1.4-3.6-3.9c0-2.3,1.6-3.8,3.4-3.8c2.2,0,3.5,1.5,3.5,3.8v0.4h-5.4
	c0,1.3,1,2.2,2.2,2.2s1.8-0.6,2-1.5L431.1,577.9z M429.6,575.6c0-1-0.7-1.8-2-1.8c-1.2,0-1.9,0.9-2,1.8H429.6z M442.2,574.1h-0.6
	c-1.2,0-2,0.6-2,2.2v3.6h-1.4v-7.2h1.4v1.3c0.5-1.1,1.4-1.4,2.2-1.4h0.5v1.5L442.2,574.1z M450.6,577.9c-0.4,1.3-1.6,2.3-3.2,2.3
	c-1.9,0-3.6-1.4-3.6-3.9c0-2.3,1.6-3.8,3.4-3.8c2.2,0,3.5,1.5,3.5,3.8v0.4h-5.4c0,1.3,1,2.2,2.2,2.2s1.8-0.6,2-1.5L450.6,577.9z
	 M449.2,575.6c0-1-0.7-1.8-2-1.8c-1.2,0-1.9,0.9-2,1.8H449.2z M456.4,579.9H455l-2.9-7.2h1.6l2.1,5.6l2.1-5.6h1.5L456.4,579.9
	L456.4,579.9z M467.4,577.9c-0.4,1.3-1.6,2.3-3.2,2.3c-1.9,0-3.6-1.4-3.6-3.9c0-2.3,1.6-3.8,3.4-3.8c2.2,0,3.5,1.5,3.5,3.8v0.4H462
	c0,1.3,1,2.2,2.2,2.2s1.8-0.6,2-1.5L467.4,577.9z M466,575.6c0-1-0.7-1.8-2-1.8c-1.2,0-1.9,0.9-2,1.8H466z M474,574.1h-0.6
	c-1.2,0-2,0.6-2,2.2v3.6H470v-7.2h1.4v1.3c0.5-1.1,1.4-1.4,2.2-1.4h0.5v1.5L474,574.1z M478.5,572.7h1.6v1.3h-1.6v3.8
	c0,0.7,0.3,1,1,1c0.2,0,0.4,0,0.6-0.1v1.2c-0.1,0-0.5,0.1-1,0.1c-1.2,0-2-0.8-2-2.1v-4h-1.4v-1.3h0.4c0.8,0,1.1-0.5,1.1-1.1v-1.2
	h1.3V572.7L478.5,572.7z M488.9,577.9c-0.4,1.3-1.6,2.3-3.2,2.3c-1.9,0-3.6-1.4-3.6-3.9c0-2.3,1.6-3.8,3.4-3.8
	c2.2,0,3.5,1.5,3.5,3.8v0.4h-5.4c0,1.3,1,2.2,2.2,2.2s1.8-0.6,2-1.5L488.9,577.9z M487.5,575.6c0-1-0.7-1.8-2-1.8
	c-1.2,0-1.9,0.9-2,1.8H487.5z M496.6,578.8c-0.3,0.7-1.1,1.3-2.2,1.3c-2.1,0-3.4-1.7-3.4-3.8c0-2,1.4-3.8,3.4-3.8
	c1.3,0,2,0.6,2.2,1.2V569h1.4v9.5c0,0.7,0.1,1.2,0.1,1.3h-1.4C496.7,579.6,496.6,579.3,496.6,578.8z M494.5,578.9
	c1.3,0,2.1-1.1,2.1-2.6s-0.8-2.5-2.1-2.5s-2.1,1-2.1,2.5S493.1,578.9,494.5,578.9z"/>
<path class="st8" d="M300.1,574.4h13 M302,569.8l9.2,9.2 M311.2,569.8L302,579 M306.6,567.9v13"/>
<path class="st0" d="M342.6,89.8c2,0,3.2,1.2,3.2,2.9c0,1.1-0.7,2-1.6,2.3c1.2,0.3,1.9,1.4,1.9,2.6c0,1.7-1.3,2.9-3.3,2.9h-3.7V89.8
	C339.1,89.8,342.6,89.8,342.6,89.8z M342.4,94.4c1.2,0,1.9-0.7,1.9-1.7s-0.7-1.7-1.9-1.7h-1.8v3.4C340.6,94.4,342.4,94.4,342.4,94.4
	z M342.6,99.1c1.2,0,2-0.7,2-1.7s-0.6-1.7-1.9-1.7h-2.1v3.4C340.6,99.1,342.6,99.1,342.6,99.1z M355.1,98.3
	c-0.4,1.3-1.6,2.3-3.2,2.3c-1.9,0-3.6-1.4-3.6-3.9c0-2.3,1.6-3.8,3.4-3.8c2.2,0,3.5,1.5,3.5,3.8v0.4h-5.4c0,1.3,1,2.2,2.2,2.2
	s1.8-0.6,2-1.5L355.1,98.3z M353.7,96c0-1-0.7-1.8-2-1.8c-1.2,0-1.9,0.9-2,1.8H353.7z M359.6,94.5v5.9h-1.5v-5.9h-1.3v-1.3h1.3V92
	c0-1.6,1.1-2.5,2.4-2.5c0.5,0,0.8,0.1,0.8,0.2V91c-0.1,0-0.3-0.1-0.6-0.1c-0.5,0-1.1,0.2-1.1,1.2v1.1h1.7v1.3H359.6L359.6,94.5z
	 M370.1,96.8c0,2.2-1.5,3.8-3.7,3.8s-3.7-1.6-3.7-3.8c0-2.2,1.5-3.8,3.7-3.8S370.1,94.6,370.1,96.8z M368.6,96.8
	c0-1.7-1.1-2.6-2.2-2.6s-2.2,0.9-2.2,2.6s1.1,2.6,2.2,2.6S368.6,98.5,368.6,96.8z M376.6,94.6H376c-1.2,0-2,0.6-2,2.2v3.6h-1.4v-7.2
	h1.4v1.3c0.5-1.1,1.4-1.4,2.2-1.4h0.5v1.5H376.6z M385.1,98.3c-0.4,1.3-1.6,2.3-3.2,2.3c-1.9,0-3.6-1.4-3.6-3.9
	c0-2.3,1.6-3.8,3.4-3.8c2.2,0,3.5,1.5,3.5,3.8v0.4h-5.4c0,1.3,1,2.2,2.2,2.2s1.8-0.6,2-1.5L385.1,98.3z M383.7,96c0-1-0.7-1.8-2-1.8
	c-1.2,0-1.9,0.9-2,1.8H383.7z M395.4,96h-1.6v4.3h-1.5V89.8h4c2,0,3.3,1.4,3.3,3.2c0,1.5-1,2.7-2.6,3l2.5,4.5h-1.7L395.4,96
	L395.4,96z M396.1,94.7c1.2,0,2-0.7,2-1.8s-0.8-1.8-2-1.8h-2.2v3.6C393.9,94.7,396.1,94.7,396.1,94.7z M408.2,98.3
	c-0.4,1.3-1.6,2.3-3.2,2.3c-1.9,0-3.6-1.4-3.6-3.9c0-2.3,1.6-3.8,3.4-3.8c2.2,0,3.5,1.5,3.5,3.8v0.4h-5.4c0,1.3,1,2.2,2.2,2.2
	s1.8-0.6,2-1.5L408.2,98.3z M406.8,96c0-1-0.7-1.8-2-1.8c-1.2,0-1.9,0.9-2,1.8H406.8z M414,100.4h-1.4l-2.9-7.2h1.6l2.1,5.6l2.1-5.6
	h1.5L414,100.4L414,100.4z M425,98.3c-0.4,1.3-1.6,2.3-3.2,2.3c-1.9,0-3.6-1.4-3.6-3.9c0-2.3,1.6-3.8,3.4-3.8c2.2,0,3.5,1.5,3.5,3.8
	v0.4h-5.4c0,1.3,1,2.2,2.2,2.2s1.8-0.6,2-1.5L425,98.3z M423.6,96c0-1-0.7-1.8-2-1.8c-1.2,0-1.9,0.9-2,1.8H423.6z M431.6,94.6H431
	c-1.2,0-2,0.6-2,2.2v3.6h-1.4v-7.2h1.4v1.3c0.5-1.1,1.4-1.4,2.2-1.4h0.5v1.5H431.6z M436.1,93.2h1.6v1.3h-1.6v3.8c0,0.7,0.3,1,1,1
	c0.2,0,0.4,0,0.6-0.1v1.2c-0.1,0-0.5,0.1-1,0.1c-1.2,0-2-0.8-2-2.1v-4h-1.4v-1.3h0.4c0.8,0,1.1-0.5,1.1-1.1v-1.2h1.3
	C436.1,90.8,436.1,93.2,436.1,93.2z M441,89.4c0.6,0,1,0.4,1,1s-0.4,1-1,1s-1-0.5-1-1S440.4,89.4,441,89.4z M440.3,100.4v-7.2h1.4
	v7.2H440.3z M446.2,100.4h-1.4v-7.2h1.4v1c0.5-0.9,1.4-1.2,2.2-1.2c1.7,0,2.6,1.2,2.6,2.9v4.6h-1.4v-4.3c0-1-0.4-1.8-1.7-1.8
	c-1.1,0-1.7,0.9-1.7,2V100.4z M454.9,100.5c0.1,1,0.9,1.8,2,1.8c1.5,0,2.2-0.8,2.2-2.3v-1c-0.3,0.7-1.1,1.2-2.2,1.2
	c-1.9,0-3.3-1.5-3.3-3.5c0-1.9,1.3-3.5,3.3-3.5c1.1,0,1.9,0.4,2.2,1.1v-1h1.4v6.7c0,1.8-0.9,3.6-3.6,3.6c-1.8,0-3.1-1.1-3.3-2.7
	C453.6,100.9,454.9,100.5,454.9,100.5z M459.1,96.6c0-1.4-0.8-2.3-2.1-2.3c-1.2,0-2.1,0.9-2.1,2.3s0.8,2.3,2.1,2.3
	C458.2,98.9,459.1,97.9,459.1,96.6z"/>
<path class="st9" d="M129.3,685h541.4"/>
<g>
	<path class="st10" d="M477,455.9h96.2v50H477V455.9z"/>
	<g>
		<path class="st11" d="M510,487v-10h2l2.4,7.1c0.2,0.7,0.4,1.2,0.5,1.5c0.1-0.4,0.3-0.9,0.5-1.6l2.4-7h1.8v10h-1.3v-8.4l-2.9,8.4
			h-1.2l-2.9-8.5v8.5H510z"/>
		<path class="st11" d="M527,486.1c-0.5,0.4-0.9,0.7-1.3,0.8c-0.4,0.2-0.9,0.2-1.4,0.2c-0.8,0-1.4-0.2-1.8-0.6
			c-0.4-0.4-0.6-0.9-0.6-1.5c0-0.4,0.1-0.7,0.2-1c0.2-0.3,0.4-0.5,0.6-0.7c0.3-0.2,0.6-0.3,0.9-0.4c0.2-0.1,0.6-0.1,1.1-0.2
			c1-0.1,1.7-0.3,2.2-0.4c0-0.2,0-0.3,0-0.3c0-0.5-0.1-0.9-0.3-1.1c-0.3-0.3-0.8-0.4-1.4-0.4c-0.6,0-1,0.1-1.3,0.3
			c-0.3,0.2-0.5,0.6-0.6,1.1l-1.2-0.2c0.1-0.5,0.3-0.9,0.5-1.2c0.3-0.3,0.6-0.6,1.1-0.7c0.5-0.2,1-0.3,1.6-0.3s1.1,0.1,1.5,0.2
			s0.7,0.3,0.9,0.6c0.2,0.2,0.3,0.5,0.4,0.8c0,0.2,0.1,0.6,0.1,1.1v1.6c0,1.1,0,1.9,0.1,2.2s0.2,0.6,0.3,0.9h-1.3
			C527,486.8,527,486.5,527,486.1z M526.8,483.4c-0.4,0.2-1.1,0.3-2,0.5c-0.5,0.1-0.9,0.2-1.1,0.2c-0.2,0-0.4,0.2-0.5,0.4
			c-0.1,0.2-0.2,0.4-0.2,0.6c0,0.3,0.1,0.6,0.4,0.8c0.2,0.2,0.6,0.3,1.1,0.3s0.9-0.1,1.3-0.3c0.4-0.2,0.6-0.5,0.8-0.9
			c0.1-0.3,0.2-0.7,0.2-1.2V483.4L526.8,483.4z"/>
		<path class="st11" d="M530.7,478.4V477h1.2v1.4H530.7z M530.7,487v-7.3h1.2v7.3H530.7z"/>
		<path class="st11" d="M534.5,487v-7.3h1.1v1c0.5-0.8,1.3-1.2,2.3-1.2c0.4,0,0.8,0.1,1.2,0.2c0.4,0.2,0.6,0.4,0.8,0.6
			s0.3,0.6,0.4,0.9c0,0.2,0.1,0.6,0.1,1.2v4.5h-1.2v-4.4c0-0.5,0-0.9-0.1-1.1s-0.3-0.4-0.5-0.6c-0.2-0.1-0.5-0.2-0.9-0.2
			c-0.5,0-1,0.2-1.4,0.5s-0.6,1-0.6,1.9v4H534.5L534.5,487z"/>
	</g>
</g>
<g>
	<path class="st10" d="M425.2,1158.2h96.2v50h-96.2V1158.2z"/>
	<g>
		<path class="st11" d="M458.2,1189.3v-10h2l2.4,7.1c0.2,0.7,0.4,1.2,0.5,1.5c0.1-0.4,0.3-0.9,0.5-1.6l2.4-7h1.8v10h-1.3v-8.4
			l-2.9,8.4h-1.2l-2.9-8.5v8.5H458.2z"/>
		<path class="st11" d="M475.2,1188.4c-0.5,0.4-0.9,0.7-1.3,0.8c-0.4,0.2-0.9,0.2-1.4,0.2c-0.8,0-1.4-0.2-1.8-0.6
			c-0.4-0.4-0.6-0.9-0.6-1.5c0-0.4,0.1-0.7,0.2-1c0.2-0.3,0.4-0.5,0.6-0.7c0.3-0.2,0.6-0.3,0.9-0.4c0.2-0.1,0.6-0.1,1.1-0.2
			c1-0.1,1.7-0.3,2.2-0.4c0-0.2,0-0.3,0-0.3c0-0.5-0.1-0.9-0.3-1.1c-0.3-0.3-0.8-0.4-1.4-0.4c-0.6,0-1,0.1-1.3,0.3
			c-0.3,0.2-0.5,0.6-0.6,1.1l-1.2-0.2c0.1-0.5,0.3-0.9,0.5-1.2c0.3-0.3,0.6-0.6,1.1-0.7c0.5-0.2,1-0.3,1.6-0.3s1.1,0.1,1.5,0.2
			s0.7,0.3,0.9,0.6c0.2,0.2,0.3,0.5,0.4,0.8c0,0.2,0.1,0.6,0.1,1.1v1.6c0,1.1,0,1.9,0.1,2.2s0.2,0.6,0.3,0.9h-1.3
			C475.2,1189.1,475.2,1188.8,475.2,1188.4z M475,1185.7c-0.4,0.2-1.1,0.3-2,0.5c-0.5,0.1-0.9,0.2-1.1,0.2c-0.2,0-0.4,0.2-0.5,0.4
			c-0.1,0.2-0.2,0.4-0.2,0.6c0,0.3,0.1,0.6,0.4,0.8c0.2,0.2,0.6,0.3,1.1,0.3s0.9-0.1,1.3-0.3c0.4-0.2,0.6-0.5,0.8-0.9
			c0.1-0.3,0.2-0.7,0.2-1.2V1185.7L475,1185.7z"/>
		<path class="st11" d="M478.9,1180.7v-1.4h1.2v1.4H478.9z M478.9,1189.3v-7.3h1.2v7.3H478.9z"/>
		<path class="st11" d="M482.7,1189.3v-7.3h1.1v1c0.5-0.8,1.3-1.2,2.3-1.2c0.4,0,0.8,0.1,1.2,0.2c0.4,0.2,0.6,0.4,0.8,0.6
			c0.2,0.2,0.3,0.6,0.4,0.9c0,0.2,0.1,0.6,0.1,1.2v4.5h-1.2v-4.4c0-0.5,0-0.9-0.1-1.1s-0.3-0.4-0.5-0.6c-0.2-0.1-0.5-0.2-0.9-0.2
			c-0.5,0-1,0.2-1.4,0.5c-0.4,0.3-0.6,1-0.6,1.9v4H482.7L482.7,1189.3z"/>
	</g>
</g>
</svg>
