<?xml version="1.0" encoding="utf-8"?>
<!-- Generator: Adobe Illustrator 25.2.3, SVG Export Plug-In . SVG Version: 6.00 Build 0)  -->
<svg version="1.1" id="Lager_1" xmlns="http://www.w3.org/2000/svg" xmlns:xlink="http://www.w3.org/1999/xlink" x="0px" y="0px"
	 viewBox="0 0 800 458" style="enable-background:new 0 0 800 458;" xml:space="preserve">
<style type="text/css">
	.st0{fill:#999999;}
	.st1{fill:none;stroke:#404040;stroke-width:4;stroke-miterlimit:10;}
	.st2{fill:#59AFE1;stroke:#404040;stroke-width:4;stroke-linejoin:round;stroke-miterlimit:10;}
	.st3{fill:#4ED1A1;stroke:#404040;stroke-width:4;stroke-miterlimit:10;}
	.st4{fill:#FFFFFF;stroke:#404040;stroke-width:4;stroke-miterlimit:10;}
	.st5{fill:#B3E3FF;stroke:#404040;stroke-width:4;stroke-linejoin:round;stroke-miterlimit:10;}
	.st6{fill:#4ED1A1;stroke:#404040;stroke-width:4;stroke-linecap:round;stroke-linejoin:round;stroke-miterlimit:10;}
	.st7{fill:#404040;}
	.st8{fill:none;stroke:#404040;stroke-width:4;stroke-linecap:round;stroke-linejoin:round;stroke-miterlimit:10;}
	.st9{fill:#B3E3FF;stroke:#404040;stroke-width:4;stroke-linecap:round;stroke-linejoin:round;stroke-miterlimit:10;}
	.st10{fill:#414141;}
</style>
<path class="st0" d="M273.5,15.1V6.8l-3.6,8.3h-1.3L265,6.8v8.3h-1.5V4.5h2l3.7,8.7l3.8-8.7h2v10.6H273.5z M285,11.5
	c0,2.2-1.5,3.8-3.7,3.8s-3.7-1.6-3.7-3.8s1.5-3.8,3.7-3.8S285,9.3,285,11.5z M283.6,11.5c0-1.7-1.1-2.6-2.2-2.6s-2.2,0.9-2.2,2.6
	s1,2.6,2.2,2.6S283.6,13.2,283.6,11.5z M290.7,15.1h-1.4l-2.9-7.2h1.6l2.1,5.6l2.1-5.6h1.5L290.7,15.1L290.7,15.1z M296.3,4.2
	c0.6,0,1,0.4,1,1s-0.4,1-1,1s-1-0.5-1-1C295.3,4.6,295.8,4.2,296.3,4.2z M295.6,15.1V7.9h1.4v7.2H295.6z M301.6,15.1h-1.4V7.9h1.4v1
	c0.5-0.9,1.4-1.2,2.2-1.2c1.7,0,2.6,1.2,2.6,2.9v4.6H305v-4.3c0-1-0.4-1.8-1.7-1.8c-1.1,0-1.7,0.9-1.7,2V15.1z M310.2,15.2
	c0.1,1,0.9,1.8,2,1.8c1.5,0,2.2-0.8,2.2-2.3v-1c-0.3,0.7-1.1,1.2-2.2,1.2c-1.9,0-3.3-1.5-3.3-3.5c0-1.9,1.3-3.5,3.3-3.5
	c1.1,0,1.9,0.4,2.2,1.1V8h1.4v6.7c0,1.8-0.9,3.6-3.6,3.6c-1.8,0-3.1-1.1-3.3-2.7C308.9,15.6,310.2,15.2,310.2,15.2z M314.4,11.3
	c0-1.4-0.8-2.3-2.1-2.3c-1.2,0-2.1,0.9-2.1,2.3s0.8,2.3,2.1,2.3S314.4,12.7,314.4,11.3z M330.3,15.1v-4.7h-5.4v4.7h-1.5V4.5h1.5V9
	h5.4V4.5h1.5v10.6H330.3z M335.2,15.1V4.5h6.5v1.4h-5v3.3h4.5v1.4h-4.5v3.3h5v1.4h-6.5V15.1z M350.9,12.2h-4.7l-1.1,3h-1.6l4.2-10.6
	h1.7l4.2,10.6H352L350.9,12.2z M346.7,10.8h3.7L348.6,6L346.7,10.8L346.7,10.8z M355.9,15.1V4.5h3.7c2.7,0,5.1,1.8,5.1,5.3
	s-2.4,5.3-5.1,5.3H355.9z M359.6,13.8c2,0,3.6-1.3,3.6-4s-1.6-4-3.6-4h-2.2v8H359.6z M373.7,7.9h1.6v1.3h-1.6V13c0,0.7,0.3,1,1,1
	c0.2,0,0.4,0,0.6-0.1v1.2c-0.1,0-0.5,0.1-1,0.1c-1.2,0-2-0.8-2-2.1v-4h-1.4V7.9h0.4c0.8,0,1.1-0.5,1.1-1.1V5.6h1.3
	C373.7,5.6,373.7,7.9,373.7,7.9z M384.6,11.5c0,2.2-1.5,3.8-3.7,3.8s-3.7-1.6-3.7-3.8s1.5-3.8,3.7-3.8S384.6,9.3,384.6,11.5z
	 M383.2,11.5c0-1.7-1.1-2.6-2.2-2.6s-2.2,0.9-2.2,2.6s1.1,2.6,2.2,2.6S383.2,13.2,383.2,11.5z M393.4,11l1.9-0.3
	c0.4-0.1,0.6-0.3,0.6-0.5c0-0.7-0.5-1.3-1.6-1.3c-1,0-1.5,0.6-1.6,1.5l-1.4-0.3c0.2-1.4,1.4-2.3,3-2.3c2.2,0,3,1.2,3,2.6V14
	c0,0.6,0.1,1,0.1,1.2H396c0-0.2-0.1-0.5-0.1-1c-0.3,0.5-1,1.2-2.3,1.2c-1.5,0-2.4-1-2.4-2.2C391.2,11.9,392.1,11.2,393.4,11
	L393.4,11z M395.9,12v-0.3l-2.2,0.3c-0.6,0.1-1,0.4-1,1.1c0,0.5,0.4,1,1.2,1C395,14.2,395.9,13.6,395.9,12z M401.7,15.1h-1.4V7.9
	h1.4v1c0.5-0.9,1.4-1.2,2.2-1.2c1.7,0,2.6,1.2,2.6,2.9v4.6H405v-4.3c0-1-0.4-1.8-1.7-1.8c-1.1,0-1.7,0.9-1.7,2v4H401.7z M415.7,11
	l1.9-0.3c0.4-0.1,0.6-0.3,0.6-0.5c0-0.7-0.5-1.3-1.6-1.3c-1,0-1.5,0.6-1.6,1.5l-1.4-0.3c0.2-1.4,1.4-2.3,3-2.3c2.2,0,3,1.2,3,2.6V14
	c0,0.6,0.1,1,0.1,1.2h-1.4c0-0.2-0.1-0.5-0.1-1c-0.3,0.5-1,1.2-2.3,1.2c-1.5,0-2.4-1-2.4-2.2C413.5,11.9,414.4,11.2,415.7,11
	L415.7,11z M418.2,12v-0.3L416,12c-0.6,0.1-1,0.4-1,1.1c0,0.5,0.4,1,1.2,1C417.2,14.2,418.2,13.6,418.2,12z M426.5,9.3h-0.6
	c-1.2,0-2,0.6-2,2.2v3.6h-1.4V7.9h1.4v1.3c0.5-1.1,1.4-1.4,2.2-1.4h0.5v1.5L426.5,9.3z M428.8,15.1V4.3h1.4V9
	c0.3-0.6,1.2-1.2,2.4-1.2c2.2,0,3.3,1.7,3.3,3.8s-1.2,3.8-3.4,3.8c-1.1,0-1.9-0.5-2.3-1.2v1h-1.4V15.1z M432.3,8.9
	c-1.2,0-2.1,1-2.1,2.5c0,1.6,0.9,2.6,2.1,2.6c1.3,0,2.1-1,2.1-2.6C434.4,9.9,433.6,8.9,432.3,8.9z M439.1,4.2c0.6,0,1,0.4,1,1
	s-0.4,1-1,1s-1-0.5-1-1C438.1,4.6,438.5,4.2,439.1,4.2z M438.4,15.1V7.9h1.4v7.2H438.4z M444.8,7.9h1.6v1.3h-1.6V13c0,0.7,0.3,1,1,1
	c0.2,0,0.4,0,0.6-0.1v1.2c-0.1,0-0.5,0.1-1,0.1c-1.2,0-2-0.8-2-2.1v-4H442V7.9h0.4c0.8,0,1.1-0.5,1.1-1.1V5.6h1.3V7.9z M452.9,9.3
	h-0.6c-1.2,0-2,0.6-2,2.2v3.6h-1.4V7.9h1.4v1.3c0.5-1.1,1.4-1.4,2.2-1.4h0.5v1.5L452.9,9.3z M456.9,11l1.9-0.3
	c0.4-0.1,0.6-0.3,0.6-0.5c0-0.7-0.5-1.3-1.6-1.3c-1,0-1.5,0.6-1.6,1.5l-1.4-0.3c0.2-1.4,1.4-2.3,3-2.3c2.2,0,3,1.2,3,2.6V14
	c0,0.6,0.1,1,0.1,1.2h-1.4c0-0.2-0.1-0.5-0.1-1c-0.3,0.5-1,1.2-2.3,1.2c-1.5,0-2.4-1-2.4-2.2C454.7,11.9,455.6,11.2,456.9,11
	L456.9,11z M459.4,12v-0.3l-2.2,0.3c-0.6,0.1-1.1,0.4-1.1,1.1c0,0.5,0.4,1,1.2,1C458.5,14.2,459.4,13.6,459.4,12z M467.7,9.3h-0.6
	c-1.2,0-2,0.6-2,2.2v3.6h-1.4V7.9h1.4v1.3c0.5-1.1,1.4-1.4,2.2-1.4h0.5v1.5L467.7,9.3z M470.5,18.1l1.8-3.8l-3.1-6.4h1.6l2.2,5
	l2.2-5h1.5L472,18.1C472,18.1,470.5,18.1,470.5,18.1z M484.1,11.5c0,1.6,1,2.5,2.2,2.5c1.3,0,1.8-0.9,2-1.5l1.2,0.5
	c-0.3,1-1.4,2.2-3.3,2.2c-2.1,0-3.6-1.6-3.6-3.8s1.6-3.8,3.6-3.8c1.9,0,2.9,1.2,3.2,2.3l-1.3,0.5c-0.2-0.7-0.7-1.5-1.9-1.5
	C485.2,9,484.1,9.8,484.1,11.5L484.1,11.5z M498.7,11.5c0,2.2-1.5,3.8-3.7,3.8s-3.7-1.6-3.7-3.8s1.5-3.8,3.7-3.8
	S498.7,9.3,498.7,11.5z M497.3,11.5c0-1.7-1.1-2.6-2.2-2.6s-2.2,0.9-2.2,2.6s1.1,2.6,2.2,2.6S497.3,13.2,497.3,11.5z M501.3,15.1
	V7.9h1.3v1c0.5-0.8,1.4-1.2,2.2-1.2c0.9,0,1.8,0.4,2.2,1.4c0.6-1,1.5-1.4,2.4-1.4c1.3,0,2.5,0.9,2.5,2.7v4.7h-1.4v-4.5
	c0-0.9-0.5-1.6-1.5-1.6s-1.7,0.8-1.7,1.8v4.4h-1.4v-4.5c0-0.9-0.4-1.6-1.5-1.6c-1,0-1.7,0.8-1.7,1.8v4.3h-1.4V15.1z M514.9,15.1V7.9
	h1.3v1c0.5-0.8,1.4-1.2,2.2-1.2c0.9,0,1.8,0.4,2.2,1.4c0.6-1,1.5-1.4,2.4-1.4c1.3,0,2.5,0.9,2.5,2.7v4.7h-1.4v-4.5
	c0-0.9-0.5-1.6-1.5-1.6s-1.7,0.8-1.7,1.8v4.4h-1.4v-4.5c0-0.9-0.4-1.6-1.5-1.6c-1,0-1.7,0.8-1.7,1.8v4.3h-1.4L514.9,15.1z
	 M529.2,4.2c0.6,0,1,0.4,1,1s-0.4,1-1,1s-1-0.5-1-1C528.2,4.6,528.6,4.2,529.2,4.2z M528.5,15.1V7.9h1.4v7.2H528.5z M534.9,7.9h1.6
	v1.3h-1.6V13c0,0.7,0.3,1,1,1c0.2,0,0.4,0,0.6-0.1v1.2c-0.1,0-0.5,0.1-1,0.1c-1.2,0-2-0.8-2-2.1v-4h-1.4V7.9h0.4
	c0.8,0,1.1-0.5,1.1-1.1V5.6h1.3L534.9,7.9L534.9,7.9z"/>
<path class="st1" d="M273.8,310.1h216.1 M331.5,269.1c0,22.6-18.4,41-41,41 M331.5,269.1c0-22.6,18.4-41,41-41h214.9"/>
<circle class="st2" cx="415.9" cy="228.1" r="21"/>
<circle class="st3" cx="512.2" cy="228.1" r="21"/>
<circle class="st3" cx="608.5" cy="228.1" r="21"/>
<path class="st1" d="M120.5,310.1h170"/>
<circle class="st4" cx="141.5" cy="310.1" r="21"/>
<circle class="st4" cx="237.5" cy="310.1" r="21"/>
<circle class="st5" cx="414.9" cy="310.1" r="21"/>
<ellipse transform="matrix(0.1602 -0.9871 0.9871 0.1602 122.9671 764.7305)" class="st5" cx="510.9" cy="310.1" rx="21" ry="21"/>
<path class="st6" d="M561.5,87.1h94v50h-94V87.1z"/>
<path class="st7" d="M594.2,118.1v-4.7h-5.4v4.7h-1.5v-10.6h1.5v4.5h5.4v-4.5h1.5v10.6H594.2z M605.7,114.5c0,2.2-1.5,3.8-3.7,3.8
	s-3.7-1.6-3.7-3.8c0-2.2,1.5-3.8,3.7-3.8S605.7,112.3,605.7,114.5z M604.3,114.5c0-1.7-1.1-2.6-2.2-2.6s-2.2,0.9-2.2,2.6
	s1.1,2.6,2.2,2.6S604.3,116.2,604.3,114.5z M610.1,110.9h1.6v1.3h-1.6v3.8c0,0.7,0.3,1,1,1c0.2,0,0.4,0,0.6-0.1v1.2
	c-0.1,0-0.5,0.1-1,0.1c-1.2,0-2-0.8-2-2.1v-4h-1.4v-1.3h0.4c0.8,0,1.1-0.5,1.1-1.1v-1.2h1.3L610.1,110.9L610.1,110.9z M617.9,107.4
	v1.3c-0.1,0-0.3-0.1-0.6-0.1c-0.5,0-1.1,0.2-1.1,1.2v1.2h4.8v7.2h-1.4v-5.9h-3.4v5.9h-1.5v-5.9h-1.3V111h1.3v-1.2
	c0-1.6,1.1-2.5,2.4-2.5C617.6,107.2,617.9,107.3,617.9,107.4z M620.2,107.1c0.6,0,1,0.5,1,1c0,0.6-0.4,1-1,1s-1-0.4-1-1
	C619.2,107.6,619.7,107.1,620.2,107.1z M625.7,114.4l-2.6-3.5h1.7l1.8,2.5l1.7-2.5h1.7l-2.6,3.5c0.4,0.6,2.2,3.1,2.7,3.7h-1.7
	l-1.9-2.7l-1.8,2.7H623L625.7,114.4L625.7,114.4z"/>
<path class="st8" d="M608.5,182.9v-23.5 M619.3,174.2l-10.8,10.9l-10.9-10.9"/>
<path class="st8" d="M512.2,353.4v23.5 M501.3,362.1l10.9-10.9l10.8,10.9"/>
<path class="st7" d="M402.5,185.6v-4.7h-5.4v4.7h-1.5V175h1.5v4.5h5.4V175h1.5v10.6H402.5z M407.4,185.6V175h6.5v1.4h-5v3.3h4.5v1.4
	h-4.5v3.3h5v1.4h-6.5V185.6z M423.1,182.6h-4.7l-1.1,3h-1.6l4.2-10.6h1.7l4.2,10.6h-1.6L423.1,182.6z M418.9,181.2h3.7l-1.8-4.8
	L418.9,181.2L418.9,181.2z M428.1,185.6V175h3.7c2.7,0,5.1,1.8,5.1,5.3s-2.4,5.3-5.1,5.3H428.1z M431.7,184.3c2,0,3.6-1.3,3.6-4
	s-1.6-4-3.6-4h-2.2v8H431.7z"/>
<g>
	<path class="st9" d="M465,399.9h96.2v50H465V399.9z"/>
	<g>
		<path class="st10" d="M498,431v-10h2l2.4,7.1c0.2,0.7,0.4,1.2,0.5,1.5c0.1-0.4,0.3-0.9,0.5-1.6l2.4-7h1.8v10h-1.3v-8.4l-2.9,8.4
			h-1.2l-2.9-8.5v8.5H498z"/>
		<path class="st10" d="M515,430.1c-0.5,0.4-0.9,0.7-1.3,0.8c-0.4,0.2-0.9,0.2-1.4,0.2c-0.8,0-1.4-0.2-1.8-0.6
			c-0.4-0.4-0.6-0.9-0.6-1.5c0-0.4,0.1-0.7,0.2-1c0.2-0.3,0.4-0.5,0.6-0.7c0.3-0.2,0.6-0.3,0.9-0.4c0.2-0.1,0.6-0.1,1.1-0.2
			c1-0.1,1.7-0.3,2.2-0.4c0-0.2,0-0.3,0-0.3c0-0.5-0.1-0.9-0.3-1.1c-0.3-0.3-0.8-0.4-1.4-0.4c-0.6,0-1,0.1-1.3,0.3
			c-0.3,0.2-0.5,0.6-0.6,1.1l-1.2-0.2c0.1-0.5,0.3-0.9,0.5-1.2c0.3-0.3,0.6-0.6,1.1-0.7c0.5-0.2,1-0.3,1.6-0.3s1.1,0.1,1.5,0.2
			s0.7,0.3,0.9,0.6c0.2,0.2,0.3,0.5,0.4,0.8c0,0.2,0.1,0.6,0.1,1.1v1.6c0,1.1,0,1.9,0.1,2.2s0.2,0.6,0.3,0.9h-1.3
			C515,430.8,515,430.5,515,430.1z M514.8,427.4c-0.4,0.2-1.1,0.3-2,0.5c-0.5,0.1-0.9,0.2-1.1,0.2c-0.2,0-0.4,0.2-0.5,0.4
			c-0.1,0.2-0.2,0.4-0.2,0.6c0,0.3,0.1,0.6,0.4,0.8c0.2,0.2,0.6,0.3,1.1,0.3s0.9-0.1,1.3-0.3c0.4-0.2,0.6-0.5,0.8-0.9
			c0.1-0.3,0.2-0.7,0.2-1.2V427.4L514.8,427.4z"/>
		<path class="st10" d="M518.7,422.4V421h1.2v1.4H518.7z M518.7,431v-7.3h1.2v7.3H518.7z"/>
		<path class="st10" d="M522.5,431v-7.3h1.1v1c0.5-0.8,1.3-1.2,2.3-1.2c0.4,0,0.8,0.1,1.2,0.2c0.4,0.2,0.6,0.4,0.8,0.6
			s0.3,0.6,0.4,0.9c0,0.2,0.1,0.6,0.1,1.2v4.5h-1.2v-4.4c0-0.5,0-0.9-0.1-1.1s-0.3-0.4-0.5-0.6c-0.2-0.1-0.5-0.2-0.9-0.2
			c-0.5,0-1,0.2-1.4,0.5s-0.6,1-0.6,1.9v4H522.5L522.5,431z"/>
	</g>
</g>
</svg>
